<svg width="59" height="56" viewBox="0 0 59 56" fill="none" xmlns="http://www.w3.org/2000/svg">
<path d="M50.8875 37.7653C50.9626 35.2231 50.4583 32.6953 49.4085 30.3531C48.3588 28.0108 46.7882 25.9088 44.8031 24.1894" stroke="white" stroke-width="2" stroke-linecap="round" stroke-linejoin="round"/>
<path d="M9.21875 37.7653C9.21875 26.8001 18.6219 18.7939 30.0531 18.7939C32.8247 18.7861 35.5743 19.258 38.1656 20.1862" stroke="white" stroke-width="2" stroke-linecap="round" stroke-linejoin="round"/>
<path d="M3.6875 44.7274H56.4187" stroke="white" stroke-width="2" stroke-linecap="round" stroke-linejoin="round"/>
<path d="M45.5406 21.7526L44.8031 24.1894L44.4344 25.7559C43.5034 29.3843 41.5248 32.698 38.7187 35.3287L37.9812 35.8508C37.5146 36.3365 36.9454 36.7246 36.3103 36.9902C35.6753 37.2559 34.9884 37.3932 34.2937 37.3932C33.5991 37.3932 32.9122 37.2559 32.2771 36.9902C31.642 36.7246 31.0729 36.3365 30.6062 35.8508L29.1312 34.4584L27.6562 33.0659C27.1656 32.6122 26.7759 32.0706 26.5098 31.4729C26.2438 30.8751 26.1068 30.2333 26.1068 29.5849C26.1068 28.9366 26.2438 28.2948 26.5098 27.6971C26.7759 27.0993 27.1656 26.5577 27.6562 26.1039L28.3937 25.5818C31.0425 22.9441 34.4319 21.0727 38.1656 20.1862H38.35L42.5906 19.1419L45.5406 21.7526Z" fill="#F26530" stroke="white" stroke-width="2" stroke-linecap="round" stroke-linejoin="round"/>
<path d="M53.6531 20.3603C52.9552 20.8676 52.1314 21.1979 51.2601 21.3198C50.3887 21.4417 49.4988 21.3511 48.675 21.0566L45.3562 21.7527L42.9594 19.316L43.6969 16.1832C43.3152 15.4593 43.1643 14.6462 43.2625 13.843C43.3606 13.0397 43.7037 12.2806 44.25 11.6578C46.0937 9.91727 49.7813 10.4394 52.3625 12.8762C54.9438 15.3129 55.4968 18.6198 53.6531 20.3603Z" stroke="white" stroke-width="2" stroke-linecap="round" stroke-linejoin="round"/>
</svg>
