<?xml version="1.0" encoding="UTF-8"?>
<svg version="1.1" viewBox="0 0 1080 1080" width="1080" height="1080" xmlns="http://www.w3.org/2000/svg">
<path transform="translate(531,318)" d="m0 0h21l12 3 14 7 13 11 8 11 3 5 10-1h18l12 4 9 5 10 9 8 10 6 13 3 16v9l-3 15-7 14-11 12-11 7-12 5h-2l1 59-1 13-3 5-5 3h-165l-6-4-2-6-1-70-15-5-11-7-10-11-8-16-2-9v-22l4-14 6-11 10-11 14-9 13-4h21l8 1 9-14 5-5 8-7 16-8z" fill="#F26430"/>
<path transform="translate(303,532)" d="m0 0h9l8 6 71 71 7 8 72 72 7 8 36 36 7 8 24 24v1l-18 1h-37l-10-9-20-20-5 2-16 16-11-6-16-11-10-8-13-11-13-12-10-10-7-8-9-10-15-20-10-15-8-14-8-16-8-20-6-21-3-21 1-10 4-7z" fill="#097D4C"/>
<path transform="translate(698,550)" d="m0 0h6l6 4 3 5-1 7-11 13-9 11-9 10-7 9v6l2 4 4 2 9-1 6-5 7-8 13-13 7-8 10-9 7-2 7 3 4 6v9l-8 10-13 15-11 13-6 8 1 7 4 4h8l8-7 14-15 15-16 6-5 8-1 5 3 3 5-1 9-13 23-14 22-9 12-9 10-11 10-12 7-12 4-5 1h-23l-9-1-16 16-8 7-33 33h-26l-22-1 6-7 52-52 7-8 10-10-8-14-4-11-2-15 1-14 3-12 6-12 8-11 12-13 11-9 12-11 8-7 11-9z" fill="#097D4C"/>
<path transform="translate(406,800)" d="m0 0h276l6 3 5 6 1 3v8l-4 8-6 4h-279l-6-4-3-4-1-3v-10l5-8z" fill="#097D4C"/>
<path transform="translate(216,220)" d="m0 0h11l9 4 8 7 9 19v11l-3 8 6 2 9 8 8 14 5 11v5l-13 6h-5l-8-16-6-9-5-4-6-1-5 1 2 6 13 27 1 4-8 5-10 4-3-4-13-28-14-29-13-28-2-4 1-5 28-13zm3 19-10 4 1 5 11 23 5-1 6-4 2-3-1-8-7-13-2-2z" fill="#F26430"/>
<path transform="translate(628,152)" d="m0 0 12 2 10 6 6 8 3 10-2 21-8 64-1 1-14-1-5-1-1-4 9-75-1-8-5-3-6 1-3 6-9 74-2 6-2 1-16-2-2-4 9-75 2-9 5-8 7-6 7-3z" fill="#097D4C"/>
<path transform="translate(451,532)" d="m0 0h181v13l-3 5-5 3h-165l-6-4-2-6z" fill="#097D4C"/>
<path transform="translate(682,191)" d="m0 0h13l10 4 6 5 5 10v11l-8 36-4 7-7 6-5 2-10 1-9-2-10-6-6-9-1-3v-10l8-36 4-8 8-6zm5 17-4 4-7 32v7l4 4 7-1 3-5 6-28v-10l-4-3z" fill="#097D4C"/>
<path transform="translate(284,220)" d="m0 0h11l10 5 6 8 7 19v4l-20 8-8 3 5 14 2 1h7l2-3v-9l12-5 5 1 2 6v8l-4 10-8 7-7 3-10 1-9-2-8-6-4-6-13-36v-12l5-9 7-6zm2 17-5 4 1 8 2 5 5-1 8-3-2-9-4-4z" fill="#F26430"/>
<path transform="translate(394,189)" d="m0 0h13l8 4 5 5 4 8 4 19-1 4-6 2-20 4h-4l4 17 6 1 5-3 1-9 13-3 4 1 1 2v11l-5 10-8 6-12 3-11-2-7-4-6-7-3-10-6-30v-9l4-9 7-7zm2 17-3 3v9l1 4 9-1 5-1-1-9-4-5z" fill="#F26430"/>
<path transform="translate(525,175)" d="m0 0 13 2 9 6 5 8 1 3 1 23v21l-4 10-9 7-10 3h-8l-10-3-9-8-3-6-1-4v-11l4-10 6-5 7-3 7-1h10l-2-10-4-4h-11l-9 4-5-8-1-5 8-5 8-3zm5 46-7 2-3 4v9l4 4h7l3-3v-16z" fill="#F26430"/>
<path transform="translate(845,245)" d="m0 0 12 1 9 4 8 6 5 8 1 4v9l-4 10-14 29-5 6-8 4h-14l-10-4-8-7-4-8-1-9 3-10 6-8 5-4 5-2h9l11 4 6 3 2-6v-8l-1-3-9-3-11-1v-13zm-7 46-5 5-1 8 4 4 5 1 5-5 4-8v-3l-5-2z" fill="#097D4C"/>
<path transform="translate(795,223)" d="m0 0h7l10 3 8 6 4 5 2 7-1 10-2 4-7-1-9-4v-8l-3-3h-6l-2 2v6l7 9 6 8 4 8 1 9-3 9-7 8-7 3h-13l-12-5-8-7-3-8 1-10 3-6 10 3 6 3v8l3 3 5 1 3-1 1-7-15-20-3-9 1-10 6-10 6-4z" fill="#097D4C"/>
<path transform="translate(740,205)" d="m0 0h9l10 3 8 6 4 7 1 7-2 10-9-1-8-3v-7l-2-3-5-1-3 1-1 2v6l7 8 7 7 6 12v11l-4 8-8 7-8 2h-7l-10-3-10-6-4-6-1-3v-10l2-6 9 1 9 4v8l3 2h7l2-3-1-5-7-8-10-12-3-9 1-10 4-8 8-6z" fill="#097D4C"/>
<path transform="translate(340,202)" d="m0 0h8l9 3 7 6 4 8 1 9-16 4-5-10-5-2-5 3-1 5 9 32 2 4 7 1 3-2 1-5-1-7 8-3 9-2 3 9v8l-3 8-6 7-8 4-13 2-10-3-8-7-4-9-9-32v-11l5-10 7-6z" fill="#F26430"/>
<path transform="translate(475,160)" d="m0 0 5 1 1 8v10l9-1 2 3 1 12-3 3h-7l4 39 1 3 9 2 1 1 1 15-6 2h-11l-8-4-5-6-2-6-3-30-1-14h-6l-1-1-1-15 6-2v-14z" fill="#F26430"/>
<path transform="translate(438,183)" d="m0 0h10l2 7 9 66-1 5-12 2h-6l-2-7-9-66 1-5 1-1z" fill="#F26430"/>
<path transform="translate(440,158)" d="m0 0 5 1 2 6 1 9-3 3-15 2-3-2-2-10v-5l2-2z" fill="#F26430"/>
</svg>
