<?xml version="1.0" encoding="UTF-8"?>
<svg version="1.1" viewBox="0 0 2048 527" width="1080" height="278" xmlns="http://www.w3.org/2000/svg">
<path transform="translate(452,23)" d="m0 0h9l15 3 12 6 9 7 7 7 7 11 11-1h11l12 3 11 6 9 8 7 10 5 12 1 4v24l-5 13-6 9-10 10-12 6-7 2v63l-4 7-2 1-21 1h-86l-43-1-5-4-1-2-1-19-1-46-11-4-10-6-7-6-7-10-4-9-2-9v-17l3-13 6-11 9-10 10-7 10-4 17-2 13 2 9-13 9-9 10-6 11-4z" fill="#F36734"/>
<path transform="translate(244,215)" d="m0 0 7 1 8 6 33 33 7 8 104 104 7 8 48 48v3h-49l-8-8-8-7-11-11-7 6-10 10-6-2-21-14-13-11-8-7-12-11-7-7-7-8-11-13-14-19-12-20-10-21-8-24-3-14v-20l4-6z" fill="#067D52"/>
<path transform="translate(596,232)" d="m0 0h7l6 5 1 2v6l-7 9-12 14-13 15-1 6 3 5 2 1h7l7-5 7-8 11-11 7-8 8-7 2-1h8l5 4 1 3v8l-4 6-9 10-9 11-10 11-2 4 1 6 3 3 5 1 6-3 14-14 7-8 13-13 4-2 7 1 4 4 1 6-8 16-10 17-12 18-11 13-10 9-12 7-16 4h-19l-8-1-11 11-8 7-31 31-2 1h-20l-22-1 6-7 51-51 7-8 2-2-1-4-7-14-3-12v-17l3-13 8-15 11-12 12-12 11-9 13-12z" fill="#077E52"/>
<path transform="translate(838,167)" d="m0 0h44l12 2 10 5 10 9 7 14 2 13v18l-2 10-4 8-7 8-3 3 6 7 5 10 3 14 1 16v20l-2 5-1 1h-25l-4-4-1-36-4-13-5-5-5-3-9-2v60l-2 3h-27l-2-2-1-15v-132l1-12zm28 29v46h16l6-3 3-6v-28l-4-6-5-3z" fill="#F36937"/>
<path transform="translate(1485,165)" d="m0 0h17l12 4 11 8 7 9 4 9 1 4v128l-2 3h-26l-3-3-1-122-3-7-3-3-8-1-6 3-3 7-1 123-2 3h-27l-3-5v-119l2-12 6-12 9-9 12-6z" fill="#0A8055"/>
<path transform="translate(1587,207)" d="m0 0 13 1 11 4 8 6 7 8 4 13v61l-3 11-6 9-11 8-9 3-5 1h-13l-13-4-8-5-7-7-5-11-1-8v-56l3-12 8-11 9-6 10-4zm-2 27-5 5-1 3v55l3 6 6 3 7-1 4-4 1-3v-57l-4-6-2-1z" fill="#087F53"/>
<path transform="translate(335,456)" d="m0 0h248l7 4 3 6v9l-4 6-5 3h-250l-5-3-3-4-1-3v-8l4-6 3-3z" fill="#057D51"/>
<path transform="translate(972,207)" d="m0 0 12 1 10 4 6 4 8 9 4 11v39l-2 1-45 1v22l2 4 3 2h9l5-5 1-8 2-2h24l1 1v11l-3 10-4 6-5 5-5 4-10 4-5 1h-12l-13-4-9-6-7-8-4-9-1-5v-60l2-9 6-10 8-7 10-5zm-1 26-6 5-1 2v16h21v-16l-3-5-4-2z" fill="#F36734"/>
<path transform="translate(1147,207)" d="m0 0 12 1 10 4 8 6 6 7 4 11v39l-2 1-45 1v22l3 5 2 1h9l4-3 2-10 2-2h24l1 1v10l-4 13-6 8-11 7-11 3h-12l-13-4-9-6-7-8-4-9-1-5v-61l3-10 6-9 7-6 10-5zm-1 26-6 5-1 2v16h21v-16l-3-5-4-2z" fill="#F36734"/>
<path transform="translate(1338,207)" d="m0 0h8l11 2 11 6 7 6 6 11 2 12v55l-2 10-6 10-9 7-9 4-9 2h-12l-11-3-8-4-8-7-6-12-2-10 1-14 4-10 5-7 9-6 11-3h22l-1-12-3-7-5-4h-14l-10 4-4 2-4-1-6-14 1-5 9-6 10-4zm5 70-7 3-4 5-1 4v7l3 6 3 3 8 1 5-3 2-2 1-4v-20z" fill="#F36735"/>
<path transform="translate(1847,207)" d="m0 0h9l10 2 12 6 8 8 5 10 1 5v66l-4 10-7 8-9 6-9 3-5 1h-13l-13-4-9-6-7-8-4-10-1-4v-13l3-12 6-9 8-6 12-4 22-1v-8l-3-10-6-4h-14l-10 4-3 2-4-1-7-15 1-4 10-6 10-4zm6 70-8 3-3 4-1 3v11l3 5 6 3 7-1 5-5 1-5v-17l-1-1z" fill="#077E52"/>
<path transform="translate(1761,207)" d="m0 0 14 1 10 4 8 6 6 9 2 7 1 12-4 2h-20l-3-2-3-10-3-2h-8l-5 5v7l4 5 22 12 11 9 6 8 4 9v16l-4 10-7 8-8 5-8 3-5 1h-16l-12-3-8-5-7-8-4-13v-9l1-2 3-1h22l2 1 2 9 4 4h9l4-2 2-5-1-5-5-5-22-13-9-7-6-7-4-10-1-11 3-12 6-9 7-6 12-5z" fill="#0A7F54"/>
<path transform="translate(1675,207)" d="m0 0 14 1 10 4 6 4 6 7 4 10 1 13-3 2h-21l-3-3-3-9-3-2h-8l-4 4-1 2v6l4 5 22 12 10 8 7 8 4 10 1 11-3 12-7 10-9 6-9 3-5 1h-15l-13-3-9-6-6-7-3-9-1-13 1-2 4-1h21l2 1 3 11 4 2h9l4-4 1-6-3-5-13-8-15-9-9-8-5-8-2-6v-17l4-9 6-8 9-6 9-3z" fill="#0A7F54"/>
<path transform="translate(1059,207)" d="m0 0 13 1 12 5 10 9 5 10 1 3 1 14-2 7h-24l-2-2-1-12-3-6-2-1h-9l-5 5-1 38v15l2 8 3 3 7 1 6-3 2-4 1-11 5-2h16l6 1 1 8-2 14-5 9-4 5-11 7-11 3h-13l-13-4-9-6-6-7-4-8-1-4v-66l4-11 9-10 10-6z" fill="#F36836"/>
<path transform="translate(745,60)" d="m0 0h15v380l-1 1h-13l-1-1z" fill="#F36734"/>
<path transform="translate(1272,180)" d="m0 0 4 1 1 1v27h12l3 2v23l-3 2h-12l1 61 5 5 9 1 2 4v20l-4 3h-15l-12-3-6-4-6-7-3-9-1-7v-64h-7l-3-2v-23l3-2h7v-20l4-3z" fill="#F36835"/>
<path transform="translate(1200,210)" d="m0 0h27l2 3v114l-3 3h-25l-2-2v-117z" fill="#F36B39"/>
<path transform="translate(376,216)" d="m0 0h162v10l-4 7-2 1-21 1h-86l-43-1-5-4-1-2z" fill="#087E53"/>
<path transform="translate(1204,172)" d="m0 0h20l5 3v23l-4 3h-23l-4-2-1-3v-19l3-4z" fill="#F36735"/>
</svg>
