<svg width="73" height="73" viewBox="0 0 73 73" fill="none" xmlns="http://www.w3.org/2000/svg">
<path d="M11.125 51.7083H30.5C33.3284 51.7083 34.7426 51.7083 35.6213 52.587C36.5 53.4657 36.5 54.8799 36.5 57.7083V18.1667C36.5 15.3382 36.5 13.924 35.6213 13.0453C34.7426 12.1667 33.3284 12.1667 30.5 12.1667H11.125C10.1822 12.1667 9.71078 12.1667 9.41789 12.4595C9.125 12.7524 9.125 13.2238 9.125 14.1667V49.7083C9.125 50.6511 9.125 51.1225 9.41789 51.4154C9.71078 51.7083 10.1822 51.7083 11.125 51.7083Z" fill="#F26530"/>
<path d="M61.875 51.7083H42.5C39.6716 51.7083 38.2574 51.7083 37.3787 52.587C36.5 53.4657 36.5 54.8799 36.5 57.7083V18.1667C36.5 15.3382 36.5 13.924 37.3787 13.0453C38.2574 12.1667 39.6716 12.1667 42.5 12.1667H61.875C62.8178 12.1667 63.2892 12.1667 63.5821 12.4595C63.875 12.7524 63.875 13.2238 63.875 14.1667V49.7083C63.875 50.6511 63.875 51.1225 63.5821 51.4154C63.2892 51.7083 62.8178 51.7083 61.875 51.7083Z" fill="#F26530"/>
</svg>
