<svg width="59" height="59" viewBox="0 0 59 59" fill="none" xmlns="http://www.w3.org/2000/svg">
<path fill-rule="evenodd" clip-rule="evenodd" d="M15.9792 39.3333H39.3333C43.9688 39.3333 46.2866 39.3333 47.7266 37.8933C49.1667 36.4532 49.1667 34.1355 49.1667 29.5V17.2083C49.1667 12.5729 49.1667 10.2551 47.7266 8.81506C46.2866 7.375 43.9688 7.375 39.3333 7.375H19.6667C15.0312 7.375 12.7135 7.375 11.2734 8.81506C9.83334 10.2551 9.83334 12.5729 9.83334 17.2083V45.4792C9.83334 42.0849 12.5849 39.3333 15.9792 39.3333ZM38.2892 21.0809C39.0703 20.2998 39.0703 19.0335 38.2892 18.2525C37.5082 17.4714 36.2418 17.4714 35.4608 18.2525L27.0417 26.6716L23.5392 23.1691C22.7582 22.3881 21.4918 22.3881 20.7108 23.1691C19.9297 23.9502 19.9297 25.2165 20.7108 25.9975L24.9204 30.2071C26.0919 31.3787 27.9914 31.3787 29.163 30.2071L38.2892 21.0809Z" fill="#F26530"/>
<path d="M47.7266 37.8933L47.0195 37.1862L47.0195 37.1862L47.7266 37.8933ZM47.7266 8.81506L47.0195 9.52216L47.0195 9.52217L47.7266 8.81506ZM11.2734 8.81506L10.5663 8.10795L10.5663 8.10795L11.2734 8.81506ZM38.2892 18.2525L37.5821 18.9596L37.5821 18.9596L38.2892 18.2525ZM38.2892 21.0809L37.5821 20.3738L37.5821 20.3738L38.2892 21.0809ZM35.4608 18.2525L36.1679 18.9596L36.1679 18.9596L35.4608 18.2525ZM27.0417 26.6716L26.3346 27.3787L27.0417 28.0858L27.7488 27.3787L27.0417 26.6716ZM23.5392 23.1691L22.8321 23.8762L22.8321 23.8762L23.5392 23.1691ZM20.7108 23.1691L21.4179 23.8762L21.4179 23.8762L20.7108 23.1691ZM20.7108 25.9975L21.4179 25.2904L21.4179 25.2904L20.7108 25.9975ZM24.9204 30.2071L25.6275 29.5L25.6275 29.5L24.9204 30.2071ZM29.163 30.2071L28.4559 29.5L28.4559 29.5L29.163 30.2071ZM39.3333 38.3333H15.9792V40.3333H39.3333V38.3333ZM47.0195 37.1862C46.5163 37.6894 45.823 37.9971 44.595 38.1622C43.3383 38.3312 41.6794 38.3333 39.3333 38.3333V40.3333C41.6228 40.3333 43.4405 40.3355 44.8615 40.1444C46.3113 39.9495 47.4969 39.5372 48.4337 38.6004L47.0195 37.1862ZM48.1667 29.5C48.1667 31.846 48.1646 33.5049 47.9956 34.7617C47.8305 35.9897 47.5228 36.6829 47.0195 37.1862L48.4337 38.6004C49.3705 37.6636 49.7828 36.4779 49.9778 35.0282C50.1688 33.6072 50.1667 31.7895 50.1667 29.5H48.1667ZM48.1667 17.2083V29.5H50.1667V17.2083H48.1667ZM47.0195 9.52217C47.5228 10.0254 47.8305 10.7187 47.9956 11.9467C48.1646 13.2034 48.1667 14.8623 48.1667 17.2083H50.1667C50.1667 14.9189 50.1688 13.1012 49.9778 11.6802C49.7828 10.2304 49.3705 9.04475 48.4337 8.10795L47.0195 9.52217ZM39.3333 8.375C41.6794 8.375 43.3383 8.37712 44.595 8.54609C45.823 8.71119 46.5163 9.01891 47.0195 9.52216L48.4337 8.10795C47.4969 7.17115 46.3113 6.75884 44.8615 6.56392C43.4405 6.37288 41.6228 6.375 39.3333 6.375V8.375ZM19.6667 8.375H39.3333V6.375H19.6667V8.375ZM11.9805 9.52217C12.4838 9.0189 13.177 8.71119 14.405 8.54609C15.6618 8.37712 17.3207 8.375 19.6667 8.375V6.375C17.3772 6.375 15.5595 6.37288 14.1385 6.56392C12.6887 6.75884 11.5031 7.17115 10.5663 8.10795L11.9805 9.52217ZM10.8333 17.2083C10.8333 14.8623 10.8355 13.2034 11.0044 11.9467C11.1695 10.7187 11.4772 10.0254 11.9805 9.52217L10.5663 8.10795C9.6295 9.04475 9.21718 10.2304 9.02227 11.6802C8.83122 13.1012 8.83334 14.9189 8.83334 17.2083H10.8333ZM10.8333 45.4792V17.2083H8.83334V45.4792H10.8333ZM15.9792 38.3333C12.0326 38.3333 8.83334 41.5326 8.83334 45.4792H10.8333C10.8333 42.6372 13.1372 40.3333 15.9792 40.3333V38.3333ZM37.5821 18.9596C37.9726 19.3501 37.9726 19.9832 37.5821 20.3738L38.9963 21.788C40.1679 20.6164 40.1679 18.7169 38.9963 17.5453L37.5821 18.9596ZM36.1679 18.9596C36.5584 18.569 37.1916 18.569 37.5821 18.9596L38.9963 17.5453C37.8248 16.3738 35.9253 16.3738 34.7537 17.5453L36.1679 18.9596ZM27.7488 27.3787L36.1679 18.9596L34.7537 17.5453L26.3346 25.9645L27.7488 27.3787ZM22.8321 23.8762L26.3346 27.3787L27.7488 25.9645L24.2463 22.462L22.8321 23.8762ZM21.4179 23.8762C21.8084 23.4857 22.4416 23.4857 22.8321 23.8762L24.2463 22.462C23.0748 21.2904 21.1753 21.2904 20.0037 22.462L21.4179 23.8762ZM21.4179 25.2904C21.0274 24.8999 21.0274 24.2667 21.4179 23.8762L20.0037 22.462C18.8321 23.6336 18.8321 25.5331 20.0037 26.7047L21.4179 25.2904ZM25.6275 29.5L21.4179 25.2904L20.0037 26.7047L24.2132 30.9142L25.6275 29.5ZM28.4559 29.5C27.6748 30.281 26.4085 30.281 25.6275 29.5L24.2132 30.9142C25.7753 32.4763 28.308 32.4763 29.8701 30.9142L28.4559 29.5ZM37.5821 20.3738L28.4559 29.5L29.8701 30.9142L38.9963 21.788L37.5821 20.3738ZM27.0417 50.625H15.9792V52.625H27.0417V50.625ZM8.83334 45.4792C8.83334 49.4257 12.0326 52.625 15.9792 52.625V50.625C13.1372 50.625 10.8333 48.3211 10.8333 45.4792H8.83334Z" fill="#F26530"/>
<path d="M49.1667 51.625H24.5833" stroke="#F26530" stroke-width="2" stroke-linecap="round"/>
</svg>
