<svg width="59" height="56" viewBox="0 0 59 56" fill="none" xmlns="http://www.w3.org/2000/svg">
<path d="M55.6812 24.3378V46.0941H3.6875V24.3378H16.5938V35.9992C16.5938 36.9686 17.0017 37.8982 17.7278 38.5837C18.4539 39.2692 19.4387 39.6542 20.4656 39.6542H20.65C21.1738 39.6778 21.6971 39.6007 22.1884 39.4276C22.6796 39.2545 23.1285 38.989 23.5078 38.6472C23.8871 38.3054 24.1889 37.8945 24.3949 37.4393C24.6009 36.9841 24.7068 36.4942 24.7063 35.9992V24.3378H55.6812Z" fill="#F26530" stroke="white" stroke-width="2" stroke-linecap="round" stroke-linejoin="round"/>
<path d="M55.6812 24.3378L29.1313 12.5023C25.441 10.7322 21.223 10.1987 17.1692 10.9893C13.1155 11.78 9.46685 13.8478 6.82188 16.8536C4.9682 18.9745 3.87126 21.5937 3.6875 24.3378" stroke="white" stroke-width="2" stroke-linecap="round" stroke-linejoin="round"/>
<path d="M3.6875 35.303H9.03438" stroke="white" stroke-width="2" stroke-linecap="round" stroke-linejoin="round"/>
<path d="M31.8969 35.303H55.6812" stroke="white" stroke-width="2" stroke-linecap="round" stroke-linejoin="round"/>
</svg>
