<svg width="52" height="50" viewBox="0 0 52 50" fill="none" xmlns="http://www.w3.org/2000/svg">
<path d="M21.2433 48.8355C32.4234 48.8355 41.4866 40.0839 41.4866 29.2882C41.4866 18.4925 32.4234 9.74094 21.2433 9.74094C10.0632 9.74094 1 18.4925 1 29.2882C1 40.0839 10.0632 48.8355 21.2433 48.8355Z" fill="#F26530" stroke="white" stroke-width="2" stroke-linecap="round" stroke-linejoin="round"/>
<path d="M27.6359 5.11129C30.2026 2.63285 33.6838 1.24051 37.3136 1.24051C40.9435 1.24051 44.4247 2.63285 46.9914 5.11129C49.5581 7.58973 51 10.9512 51 14.4563C51 17.9613 49.5581 21.3228 46.9914 23.8012" stroke="white" stroke-width="2" stroke-linecap="round" stroke-linejoin="round"/>
<path d="M38.6454 12.1415C40.0184 12.1415 41.1315 11.0667 41.1315 9.74092C41.1315 8.41514 40.0184 7.34039 38.6454 7.34039C37.2725 7.34039 36.1594 8.41514 36.1594 9.74092C36.1594 11.0667 37.2725 12.1415 38.6454 12.1415Z" fill="white"/>
<path d="M21.2433 32.889C22.6163 32.889 23.7293 31.8143 23.7293 30.4885C23.7293 29.1627 22.6163 28.0879 21.2433 28.0879C19.8703 28.0879 18.7573 29.1627 18.7573 30.4885C18.7573 31.8143 19.8703 32.889 21.2433 32.889Z" fill="white"/>
<path d="M23.7293 21.5722C25.1023 21.5722 26.2154 20.4974 26.2154 19.1716C26.2154 17.8459 25.1023 16.7711 23.7293 16.7711C22.3563 16.7711 21.2433 17.8459 21.2433 19.1716C21.2433 20.4974 22.3563 21.5722 23.7293 21.5722Z" fill="white"/>
<path d="M32.4304 35.2895C33.8034 35.2895 34.9164 34.2148 34.9164 32.889C34.9164 31.5632 33.8034 30.4885 32.4304 30.4885C31.0574 30.4885 29.9444 31.5632 29.9444 32.889C29.9444 34.2148 31.0574 35.2895 32.4304 35.2895Z" fill="white"/>
<path d="M15.561 42.1482C16.934 42.1482 18.047 41.0735 18.047 39.7477C18.047 38.4219 16.934 37.3471 15.561 37.3471C14.188 37.3471 13.075 38.4219 13.075 39.7477C13.075 41.0735 14.188 42.1482 15.561 42.1482Z" fill="white"/>
<path d="M11.6544 27.402C13.0274 27.402 14.1404 26.3273 14.1404 25.0015C14.1404 23.6757 13.0274 22.601 11.6544 22.601C10.2814 22.601 9.16837 23.6757 9.16837 25.0015C9.16837 26.3273 10.2814 27.402 11.6544 27.402Z" fill="white"/>
</svg>
