<svg width="73" height="73" viewBox="0 0 73 73" fill="none" xmlns="http://www.w3.org/2000/svg">
<path fill-rule="evenodd" clip-rule="evenodd" d="M54.4125 9.20109L22.1397 4.12964L22.1397 4.12964C18.9191 3.62355 17.3088 3.3705 16.2585 4.26862C15.2083 5.16674 15.2083 6.7968 15.2083 10.0569V35.5H37.461L26.594 21.9164L28.1558 20.667L40.3225 35.8753L40.8222 36.5L40.3225 37.1247L28.1558 52.333L26.594 51.0836L37.461 37.5H15.2083V62.9406C15.2083 66.2007 15.2083 67.8308 16.2585 68.7289C17.3088 69.627 18.9191 69.374 22.1397 68.8679L54.4125 63.7964C56.0253 63.543 56.8316 63.4163 57.3116 62.855C57.7916 62.2937 57.7916 61.4774 57.7916 59.8449V13.1526C57.7916 11.5201 57.7916 10.7038 57.3116 10.1425C56.8316 9.58123 56.0253 9.45452 54.4125 9.20109Z" fill="#F26530"/>
</svg>
