<svg width="59" height="56" viewBox="0 0 59 56" fill="none" xmlns="http://www.w3.org/2000/svg">
<path d="M51.8094 21.2507C51.8796 22.5372 51.7554 23.8264 51.4406 25.0798C50.8721 28.042 49.6149 30.8483 47.7595 33.2967C45.9042 35.7451 43.4969 37.7748 40.7109 39.2395C37.925 40.7043 34.8296 41.5679 31.6477 41.7679C28.4658 41.9679 25.2765 41.4995 22.3094 40.3963C21.3971 40.0965 20.5296 39.687 19.7281 39.1779L18.4375 38.4817C18.4375 38.3077 18.2531 38.1336 18.2531 37.9596C17.5125 36.0653 17.1378 34.061 17.1469 32.0418V30.9975C16.9958 30.4883 16.9335 29.9592 16.9625 29.4311C16.9477 25.1255 18.3666 20.9244 21.0188 17.4216C18.7411 16.2983 16.2134 15.7017 13.6438 15.6811H12.3531C13.7295 14.3087 15.3874 13.2152 17.2259 12.4671C19.0644 11.719 21.0449 11.3321 23.0469 11.3298C24.4791 11.3201 25.9059 11.4958 27.2875 11.852C30.7344 9.88593 34.6917 8.86166 38.7188 8.89313C42.3816 8.87163 45.9927 9.7089 49.2281 11.3298C50.924 14.3917 51.8097 17.7956 51.8094 21.2507Z" stroke="white" stroke-width="2.5" stroke-linecap="round" stroke-linejoin="round"/>
<path d="M18.2531 38.4817L17.5156 43.5292L16.9625 48.7507L12.1688 44.2254L7.375 39.7L12.9062 39.1779L18.2531 38.4817Z" stroke="white" stroke-width="2.5" stroke-linecap="round" stroke-linejoin="round"/>
<path d="M48.3062 31.5197C43.0082 31.4738 37.9438 29.4548 34.2146 25.9019C30.4855 22.349 28.3935 17.5497 28.3937 12.5482" stroke="white" stroke-width="2.5" stroke-linecap="round" stroke-linejoin="round"/>
<path d="M39.825 18.2918C40.9451 18.2918 41.8531 17.4347 41.8531 16.3773C41.8531 15.3199 40.9451 14.4627 39.825 14.4627C38.7049 14.4627 37.7969 15.3199 37.7969 16.3773C37.7969 17.4347 38.7049 18.2918 39.825 18.2918Z" fill="white"/>
</svg>
