<svg width="45" height="45" viewBox="0 0 45 45" fill="none" xmlns="http://www.w3.org/2000/svg">
<circle cx="22.5" cy="15" r="6.5" stroke="white" stroke-width="2" stroke-linecap="round"/>
<path d="M27.8696 14.5625C28.4829 13.5002 29.4931 12.7251 30.678 12.4076C31.8628 12.0901 33.1252 12.2563 34.1875 12.8696C35.2498 13.4829 36.0249 14.4931 36.3424 15.678C36.6599 16.8628 36.4937 18.1252 35.8804 19.1875C35.2671 20.2498 34.2569 21.0249 33.072 21.3424C31.8872 21.6599 30.6248 21.4937 29.5625 20.8804C28.5002 20.2671 27.7251 19.2569 27.4076 18.072C27.0901 16.8872 27.2563 15.6248 27.8696 14.5625L27.8696 14.5625Z" stroke="white" stroke-width="2"/>
<path d="M9.11963 14.5625C9.73295 13.5002 10.7431 12.7251 11.928 12.4076C13.1128 12.0901 14.3752 12.2563 15.4375 12.8696C16.4998 13.4829 17.2749 14.4931 17.5924 15.678C17.9099 16.8628 17.7437 18.1252 17.1304 19.1875C16.5171 20.2498 15.5069 21.0249 14.322 21.3424C13.1372 21.6599 11.8748 21.4937 10.8125 20.8804C9.75021 20.2671 8.97507 19.2569 8.65759 18.072C8.34012 16.8872 8.50632 15.6248 9.11963 14.5625L9.11963 14.5625Z" stroke="white" stroke-width="2"/>
<path d="M31.6531 33.75L30.6727 33.9474L30.8344 34.75H31.6531V33.75ZM39.1437 32.6442L38.177 32.9001L38.177 32.9001L39.1437 32.6442ZM27.714 27.5822L27.1092 26.7859L25.9526 27.6644L27.1859 28.4314L27.714 27.5822ZM38.2422 32.75H31.6531V34.75H38.2422V32.75ZM38.177 32.9001C38.174 32.8889 38.1715 32.8655 38.1781 32.8368C38.1843 32.8098 38.1961 32.7893 38.2073 32.7758C38.2295 32.7491 38.2484 32.75 38.2422 32.75V34.75C39.4166 34.75 40.453 33.6824 40.1104 32.3883L38.177 32.9001ZM31.875 27.25C34.0258 27.25 35.4379 28.1633 36.4025 29.3089C37.3944 30.487 37.919 31.9256 38.177 32.9001L40.1104 32.3883C39.8161 31.2768 39.1933 29.5183 37.9324 28.0208C36.6442 26.4908 34.6981 25.25 31.875 25.25V27.25ZM28.3189 28.3786C29.1896 27.7173 30.3345 27.25 31.875 27.25V25.25C29.8907 25.25 28.3222 25.8646 27.1092 26.7859L28.3189 28.3786ZM27.1859 28.4314C29.4359 29.8308 30.3269 32.2305 30.6727 33.9474L32.6334 33.5526C32.2438 31.6184 31.1815 28.5612 28.2422 26.7331L27.1859 28.4314Z" fill="white"/>
<path d="M17.286 27.5822L17.8141 28.4314L19.0474 27.6644L17.8908 26.7859L17.286 27.5822ZM5.85636 32.6442L4.88966 32.3882L4.88966 32.3882L5.85636 32.6442ZM13.3469 33.75V34.75H14.1656L14.3273 33.9474L13.3469 33.75ZM13.1251 27.25C14.6655 27.25 15.8105 27.7173 16.6811 28.3786L17.8908 26.7859C16.6779 25.8646 15.1094 25.25 13.1251 25.25V27.25ZM6.82306 32.9001C7.08105 31.9256 7.60566 30.487 8.59757 29.3089C9.56216 28.1633 10.9743 27.25 13.1251 27.25V25.25C10.302 25.25 8.35589 26.4908 7.06766 28.0208C5.80674 29.5183 5.18391 31.2768 4.88966 32.3882L6.82306 32.9001ZM6.75781 32.75C6.75167 32.75 6.77054 32.7491 6.79275 32.7758C6.80394 32.7893 6.81569 32.8098 6.82193 32.8368C6.82857 32.8655 6.82601 32.8889 6.82306 32.9001L4.88966 32.3882C4.54704 33.6824 5.58339 34.75 6.75781 34.75V32.75ZM13.3469 32.75H6.75781V34.75H13.3469V32.75ZM14.3273 33.9474C14.673 32.2305 15.5641 29.8307 17.8141 28.4314L16.7579 26.7331C13.8185 28.5611 12.7562 31.6184 12.3666 33.5526L14.3273 33.9474Z" fill="white"/>
<path d="M22.5 26.25C29.982 26.25 31.4928 32.2212 31.7978 34.6327C31.8671 35.1806 31.4273 35.625 30.875 35.625H14.125C13.5727 35.625 13.1329 35.1806 13.2022 34.6327C13.5072 32.2212 15.018 26.25 22.5 26.25Z" stroke="white" stroke-width="2" stroke-linecap="round"/>
</svg>
