<svg width="73" height="73" viewBox="0 0 73 73" fill="none" xmlns="http://www.w3.org/2000/svg">
<circle cx="36.5" cy="24.3333" r="11.1667" stroke="#F26530" stroke-width="2" stroke-linecap="round"/>
<path d="M44.6719 23.3125C45.7493 21.4463 47.5239 20.0846 49.6054 19.5269C51.6869 18.9691 53.9046 19.2611 55.7708 20.3385C57.637 21.416 58.9987 23.1906 59.5565 25.2721C60.1142 27.3536 59.8222 29.5713 58.7448 31.4375C57.6673 33.3037 55.8927 34.6654 53.8112 35.2231C51.7298 35.7809 49.512 35.4889 47.6458 34.4115C45.7796 33.334 44.4179 31.5594 43.8602 29.4779C43.3024 27.3964 43.5944 25.1787 44.6719 23.3125L44.6719 23.3125Z" stroke="#F26530" stroke-width="2"/>
<path d="M14.2552 23.3125C15.3327 21.4463 17.1073 20.0846 19.1888 19.5269C21.2702 18.9691 23.488 19.2611 25.3542 20.3385C27.2204 21.416 28.5821 23.1906 29.1398 25.2721C29.6976 27.3536 29.4056 29.5713 28.3281 31.4375C27.2507 33.3037 25.4761 34.6654 23.3946 35.2231C21.3131 35.7809 19.0954 35.4889 17.2292 34.4115C15.363 33.334 14.0013 31.5594 13.4435 29.4779C12.8858 27.3964 13.1778 25.1787 14.2552 23.3125L14.2552 23.3125Z" stroke="#F26530" stroke-width="2"/>
<path d="M51.3483 54.75L50.3679 54.9475L50.5296 55.75H51.3483V54.75ZM63.6668 53.6376L64.6423 53.4178L64.6423 53.4178L63.6668 53.6376ZM44.9583 44.7446L44.3535 43.9482L43.1969 44.8267L44.4302 45.5937L44.9583 44.7446ZM62.7422 53.75H51.3483V55.75H62.7422V53.75ZM62.6912 53.8574C62.6896 53.8502 62.6882 53.8334 62.6935 53.8127C62.6984 53.7935 62.7069 53.7791 62.7148 53.7696C62.731 53.7504 62.746 53.75 62.7422 53.75V55.75C63.9297 55.75 64.9273 54.6823 64.6423 53.4178L62.6912 53.8574ZM51.7083 43.5834C55.6712 43.5834 58.2166 45.4031 59.8862 47.5907C61.5833 49.8144 62.3669 52.418 62.6912 53.8574L64.6423 53.4178C64.2898 51.8533 63.424 48.9298 61.4761 46.3774C59.5006 43.7889 56.4052 41.5834 51.7083 41.5834V43.5834ZM45.5632 45.5409C47.0821 44.3872 49.0712 43.5834 51.7083 43.5834V41.5834C48.6274 41.5834 46.2147 42.5345 44.3535 43.9482L45.5632 45.5409ZM44.4302 45.5937C48.2946 47.9972 49.7934 52.0946 50.3679 54.9475L52.3286 54.5526C51.7103 51.4826 50.0402 46.7276 45.4864 43.8954L44.4302 45.5937Z" fill="#F26530"/>
<path d="M28.0416 44.7445L28.5698 45.5937L29.8031 44.8267L28.6465 43.9482L28.0416 44.7445ZM9.33317 53.6376L8.35763 53.4178L8.35763 53.4178L9.33317 53.6376ZM21.6516 54.75V55.75H22.4703L22.632 54.9475L21.6516 54.75ZM21.2917 43.5834C23.9288 43.5834 25.9179 44.3872 27.4368 45.5409L28.6465 43.9482C26.7853 42.5345 24.3726 41.5834 21.2917 41.5834V43.5834ZM10.3087 53.8574C10.6331 52.418 11.4167 49.8144 13.1138 47.5907C14.7834 45.4031 17.3289 43.5834 21.2917 43.5834V41.5834C16.5948 41.5834 13.4995 43.7888 11.5239 46.3773C9.57596 48.9298 8.71018 51.8533 8.35763 53.4178L10.3087 53.8574ZM10.2578 53.75C10.254 53.75 10.2689 53.7504 10.2851 53.7696C10.2931 53.7791 10.3016 53.7935 10.3065 53.8127C10.3117 53.8334 10.3103 53.8502 10.3087 53.8574L8.35763 53.4178C8.07267 54.6823 9.07023 55.75 10.2578 55.75V53.75ZM21.6516 53.75H10.2578V55.75H21.6516V53.75ZM22.632 54.9475C23.2065 52.0946 24.7053 47.9971 28.5698 45.5937L27.5135 43.8954C22.9597 46.7275 21.2896 51.4826 20.6713 54.5526L22.632 54.9475Z" fill="#F26530"/>
<path d="M36.5 42.5834C49.3318 42.5834 51.337 53.41 51.6503 56.7937C51.7012 57.3436 51.2606 57.7917 50.7084 57.7917H22.2917C21.7394 57.7917 21.2988 57.3436 21.3497 56.7936C21.6631 53.41 23.6682 42.5834 36.5 42.5834Z" stroke="#F26530" stroke-width="2" stroke-linecap="round"/>
</svg>
