<svg width="73" height="73" viewBox="0 0 73 73" fill="none" xmlns="http://www.w3.org/2000/svg">
<path fill-rule="evenodd" clip-rule="evenodd" d="M51.7499 49.2348C47.2506 46.8872 41.9439 45.625 36.4999 45.625C30.4737 45.625 24.6159 47.1716 19.835 50.0248C15.431 52.6532 12.1675 56.2551 10.4612 60.3454C10.2293 60.9013 10.5792 61.5147 11.1688 61.6375L28.339 65.2159C33.7217 66.3377 39.278 66.3377 44.6607 65.2159L51.7499 63.7385V57.75L42.5833 57.75C40.9264 57.75 39.5833 56.4069 39.5833 54.75C39.5833 53.0931 40.9264 51.75 42.5833 51.75L51.7499 51.75V49.2348ZM57.7499 62.488L61.8309 61.6375C62.4205 61.5147 62.7704 60.9013 62.5385 60.3455C62.1672 59.4555 61.7223 58.5887 61.2079 57.75H57.7499V62.488Z" fill="#F26530"/>
<path d="M54.75 42.5833L54.75 66.9167" stroke="#F26530" stroke-width="2.5" stroke-linecap="round"/>
<path d="M66.9167 54.75L42.5834 54.75" stroke="#F26530" stroke-width="2.5" stroke-linecap="round"/>
<circle cx="36.5001" cy="24.3333" r="15.2083" fill="#F26530"/>
</svg>
