<svg width="59" height="56" viewBox="0 0 59 56" fill="none" xmlns="http://www.w3.org/2000/svg">
<path d="M30.8689 21.076L38.7971 13.5918C37.8614 12.717 37.331 11.5279 37.3221 10.2848C37.368 9.00611 37.9267 7.7916 38.8851 6.88689C39.8434 5.98218 41.13 5.45479 42.4846 5.41141C43.8216 5.45651 45.0878 5.98982 46.0164 6.89892C46.945 7.80802 47.4636 9.02192 47.4627 10.2848C48.3305 10.24 49.1963 10.4028 49.9797 10.758C50.7631 11.1133 51.4389 11.6494 51.9443 12.3169C52.4497 12.9843 52.7684 13.7614 52.871 14.5762C52.9735 15.3909 52.8564 16.2168 52.5307 16.9775C52.205 17.7381 51.6811 18.4088 51.0076 18.9274C50.3341 19.446 49.5329 19.7957 48.6781 19.9441C47.8233 20.0924 46.9427 20.0347 46.1178 19.7762C45.293 19.5176 44.5506 19.0667 43.9596 18.4652L36.0315 26.1234" stroke="white" stroke-width="2" stroke-linecap="round" stroke-linejoin="round"/>
<path d="M33.4502 36.3924C33.5763 39.4274 32.5773 42.4088 30.6254 44.8233C28.6735 47.2378 25.8907 48.9342 22.7565 49.6203C20.5776 50.1048 18.3075 50.0894 16.1362 49.5755C13.9648 49.0616 11.9556 48.0642 10.2765 46.6666C8.59747 45.2691 7.29755 43.5121 6.48558 41.5429C5.67361 39.5737 5.37323 37.4494 5.60958 35.3481C5.9289 32.1311 7.5007 29.1403 10.0209 26.9541C12.5412 24.7678 15.8308 23.5417 19.2533 23.5127C21.9361 23.3856 24.4559 22.2588 26.2596 20.3798L28.2877 18.6393L38.0596 27.8639L36.769 29.2563C35.7255 30.1663 34.8922 31.2697 34.3212 32.4976C33.7501 33.7255 33.4536 35.0514 33.4502 36.3924Z" fill="#F26530" stroke="white" stroke-width="2" stroke-linecap="round" stroke-linejoin="round"/>
</svg>
